<svg width="32" height="32" viewBox="0 0 32 32" fill="none" xmlns="http://www.w3.org/2000/svg">
<g clip-path="url(#clip0_25_261)">
<path d="M12.1818 14.727H9.63638V17.2725H12.1818V14.727ZM17.2727 14.727H14.7273V17.2725H17.2727V14.727ZM22.3637 14.727H19.8182V17.2725H22.3637V14.727ZM24.9091 5.81792H23.6364V3.27246H21.0909V5.81792H10.9091V3.27246H8.36365V5.81792H7.09093C5.6782 5.81792 4.5582 6.96337 4.5582 8.36337L4.54547 26.1816C4.54547 27.5816 5.6782 28.727 7.09093 28.727H24.9091C26.3091 28.727 27.4546 27.5816 27.4546 26.1816V8.36337C27.4546 6.96337 26.3091 5.81792 24.9091 5.81792ZM24.9091 26.1816H7.09093V12.1816H24.9091V26.1816Z" fill="#323232"/>
</g>
<defs>
<clipPath id="clip0_25_261">
<rect width="30.5455" height="30.5455" fill="white" transform="translate(0.727295 0.727051)"/>
</clipPath>
</defs>
</svg>
