<svg width="176" height="54" viewBox="0 0 176 54" fill="none" xmlns="http://www.w3.org/2000/svg">
<g clip-path="url(#clip0_148_34)">
<path fill-rule="evenodd" clip-rule="evenodd" d="M78.9 18.7C78.3 20.5 77.3 21.9 76 22.9C74.6 24 72.9999 24.5 71.1999 24.5C68.8999 24.5 66.8999 23.7 65.1999 22.1C63.5999 20.5 62.7 18.5 62.7 16.2C62.7 13.9 63.4999 12 65.0999 10.4C66.6999 8.8 68.7 8 71 8C72.9 8 74.6 8.5 75.9 9.6C77.2 10.7 78.3 12.1 78.8 13.9H75C74.1 12.2 72.8 11.3 71 11.3C69.6 11.3 68.4999 11.8 67.6999 12.7C66.7999 13.7 66.4 14.8 66.4 16.2C66.4 17.6 66.7999 18.7 67.6999 19.8C68.5999 20.8 69.7 21.3 71 21.3C72.8 21.3 74.1 20.5 74.9 18.8H78.9V18.7ZM92.6999 8.3H88.9L85.9 16.4L82.4 8.3H78.5L83.9 20.4L82.4 24.2H86.0999L92.6999 8.3ZM103.2 24.2H94.5H91.1999V21H92.5999L96.6999 8.3H100.8L104.9 21H106.3V24.2H103.2ZM101.4 21L98.8 12.5L96.1999 21H101.4Z" fill="#323030"/>
<path fill-rule="evenodd" clip-rule="evenodd" d="M76.1 45.7H72.6V35.8L65.9 45.7H62.9V29.8H66.5V39.6L73.2 29.8H76.2V45.7H76.1ZM91.7 45.7H88.1V39.1H82.5V45.7H79V29.8H82.6V36H88.2V29.8H91.8V45.7H91.7ZM105.8 40.8C105.8 44.1 103.9 45.7 100 45.7H94.7V29.8H100C101.5 29.8 102.7 30.1 103.6 30.7C104.6 31.4 105.2 32.5 105.2 33.9C105.2 35.4 104.6 36.5 103.4 37.1C104.9 37.7 105.8 39 105.8 40.8ZM101.5 34.5C101.5 33.5 100.9 33 99.6 33H98.1V36.1H99.5C100.8 36.1 101.5 35.6 101.5 34.5ZM98.1 38.9V42.5H100C101.5 42.5 102.2 41.9 102.2 40.7C102.2 39.5 101.5 38.9 100 38.9H98.1ZM116.7 45.7H108V29.8H116.7V33H111.6V36H116.6V39.2H111.6V42.5H116.7V45.7ZM134.8 40.2C134.2 42 133.2 43.4 131.9 44.4C130.5 45.5 128.9 46 127.1 46C124.8 46 122.8 45.2 121.1 43.6C119.5 42 118.6 40 118.6 37.7C118.6 35.4 119.4 33.5 121 31.9C122.6 30.3 124.6 29.5 126.9 29.5C128.8 29.5 130.5 30 131.8 31.1C133.2 32.1 134.2 33.6 134.7 35.4H130.8C129.9 33.7 128.6 32.8 126.8 32.8C125.4 32.8 124.3 33.3 123.5 34.2C122.6 35.2 122.2 36.3 122.2 37.7C122.2 39.1 122.6 40.2 123.5 41.3C124.4 42.3 125.5 42.8 126.8 42.8C128.6 42.8 129.9 42 130.7 40.3H134.8V40.2ZM145 33H141.8V45.7H138.2V33H135.1V29.8H145V33ZM153.6 46C151.3 46 149.3 45.2 147.7 43.6C146.1 42 145.3 40 145.3 37.7C145.3 35.4 146.1 33.4 147.7 31.8C149.3 30.2 151.3 29.4 153.6 29.4C155.9 29.4 157.9 30.2 159.5 31.8C161.1 33.4 161.9 35.3 161.9 37.7C161.9 40 161.1 42 159.5 43.6C157.9 45.2 156 46 153.6 46ZM153.6 32.8C152.3 32.8 151.2 33.3 150.3 34.3C149.4 35.3 148.9 36.5 148.9 37.8C148.9 39.1 149.4 40.3 150.3 41.3C151.2 42.3 152.3 42.8 153.6 42.8C155 42.8 156.1 42.3 157 41.3C157.9 40.3 158.3 39.2 158.3 37.8C158.3 36.4 157.9 35.3 157 34.3C156.1 33.2 155 32.8 153.6 32.8ZM167.7 45.7H164.1V29.8H169.7C171.5 29.8 172.9 30.2 173.9 31.1C175 32 175.5 33.4 175.5 35.2C175.5 37 174.9 38.3 173.7 39.2C172.6 40 171.2 40.4 169.3 40.4H167.6V45.7H167.7ZM167.7 33V37.2H169.3C171.1 37.2 172 36.5 172 35.1C172 33.7 171.1 33 169.3 33H167.7Z" fill="#323030"/>
<path fill-rule="evenodd" clip-rule="evenodd" d="M46.2 34.7L53.7999 27L46.2 19.4H34.7L42.4 27L34.7 34.7H46.2Z" fill="#FFB000"/>
<path fill-rule="evenodd" clip-rule="evenodd" d="M0 27L26.9 53.9V42.5L11.5 27H0Z" fill="#1245B5"/>
<path fill-rule="evenodd" clip-rule="evenodd" d="M0 27L26.9 0.0999756L32.6 5.79998L11.4 27H0Z" fill="#2753FE"/>
<path fill-rule="evenodd" clip-rule="evenodd" d="M21.2 5.79998L31.2999 15.9H42.5999L26.9 0.0999756L21.2 5.79998Z" fill="#6985FF"/>
<path fill-rule="evenodd" clip-rule="evenodd" d="M26.9 53.9L42.7 38.1H31.2999L21.2 48.3L26.9 53.9Z" fill="#4660D4"/>
</g>
<defs>
<clipPath id="clip0_148_34">
<rect width="175.5" height="53.8" fill="white" transform="translate(0 0.0999756)"/>
</clipPath>
</defs>
</svg>
