<svg width="32" height="32" viewBox="0 0 32 32" fill="none" xmlns="http://www.w3.org/2000/svg">
<g clip-path="url(#clip0_26_271)">
<path d="M18.5455 3.27246H8.36369C6.96369 3.27246 5.81824 4.41792 5.81824 5.81792V26.1816C5.81824 27.5816 6.96369 28.727 8.36369 28.727H23.6364C25.0364 28.727 26.1819 27.5816 26.1819 26.1816V10.9088L18.5455 3.27246ZM19.8182 14.727H14.7273V15.9997H18.5455C19.2455 15.9997 19.8182 16.5725 19.8182 17.2725V21.0906C19.8182 21.7906 19.2455 22.3634 18.5455 22.3634H17.2728V23.6361H14.7273V22.3634H12.1819V19.8179H17.2728V18.5452H13.4546C12.7546 18.5452 12.1819 17.9725 12.1819 17.2725V13.4543C12.1819 12.7543 12.7546 12.1816 13.4546 12.1816H14.7273V10.9088H17.2728V12.1816H19.8182V14.727Z" fill="#323232"/>
</g>
<defs>
<clipPath id="clip0_26_271">
<rect width="30.5455" height="30.5455" fill="white" transform="translate(0.727295 0.727051)"/>
</clipPath>
</defs>
</svg>
