<svg width="102" height="102" viewBox="0 0 102 102" fill="none" xmlns="http://www.w3.org/2000/svg">
<path fill-rule="evenodd" clip-rule="evenodd" d="M67.7734 51.5242C64.5875 51.5241 61.4638 50.6428 58.7477 48.9776C56.0316 47.3124 53.8291 44.9284 52.3839 42.0892H31.0817C29.8311 42.0873 28.6323 41.5897 27.748 40.7054C26.8637 39.8211 26.3661 38.6223 26.3642 37.3717V31.0817C26.3661 29.8311 26.8637 28.6323 27.748 27.748C28.6323 26.8637 29.8311 26.3661 31.0817 26.3642H52.3839C53.6503 23.8473 55.5239 21.6856 57.8352 20.0742H27.9367C25.8517 20.075 23.8523 20.9036 22.378 22.378C20.9036 23.8523 20.075 25.8517 20.0742 27.9367V65.6767C20.075 67.7617 20.9036 69.7612 22.378 71.2355C23.8523 72.7098 25.8517 73.5384 27.9367 73.5392H29.5092V70.3733C28.3108 70.238 27.2096 69.6494 26.4314 68.7281C25.6532 67.8069 25.257 66.6227 25.324 65.4186C25.3911 64.2145 25.9163 63.0817 26.792 62.2525C27.6676 61.4233 28.8274 60.9606 30.0334 60.9592H59.3867C60.5927 60.9606 61.7525 61.4233 62.6281 62.2525C63.5038 63.0817 64.0291 64.2145 64.0961 65.4186C64.1631 66.6227 63.7669 67.8069 62.9887 68.7281C62.2105 69.6494 61.1093 70.238 59.9109 70.3733V73.5392H61.4834C63.5684 73.5384 65.5678 72.7098 67.0422 71.2355C68.5165 69.7612 69.3451 67.7617 69.3459 65.6767V51.4613C68.8846 51.5033 68.3395 51.5242 67.7734 51.5242ZM34.2267 56.7659C33.9157 56.7659 33.6117 56.6737 33.3531 56.5009C33.0945 56.3281 32.8929 56.0825 32.7739 55.7952C32.6549 55.5078 32.6238 55.1916 32.6844 54.8866C32.7451 54.5816 32.8949 54.3014 33.1148 54.0815C33.3347 53.8615 33.6149 53.7118 33.9199 53.6511C34.225 53.5904 34.5412 53.6216 34.8285 53.7406C35.1158 53.8596 35.3614 54.0612 35.5342 54.3198C35.707 54.5783 35.7992 54.8824 35.7992 55.1934C35.7962 55.6095 35.6296 56.0077 35.3353 56.302C35.0411 56.5962 34.6428 56.7629 34.2267 56.7659ZM34.2267 48.3792C33.9157 48.3792 33.6117 48.287 33.3531 48.1142C33.0945 47.9414 32.8929 47.6958 32.7739 47.4085C32.6549 47.1212 32.6238 46.805 32.6844 46.4999C32.7451 46.1949 32.8949 45.9147 33.1148 45.6948C33.3347 45.4749 33.6149 45.3251 33.9199 45.2644C34.225 45.2038 34.5412 45.2349 34.8285 45.3539C35.1158 45.4729 35.3614 45.6745 35.5342 45.9331C35.707 46.1917 35.7992 46.4957 35.7992 46.8067C35.7962 47.2228 35.6296 47.6211 35.3353 47.9153C35.0411 48.2096 34.6428 48.3762 34.2267 48.3792ZM44.7101 56.7659C44.399 56.7659 44.095 56.6737 43.8364 56.5009C43.5778 56.3281 43.3763 56.0825 43.2573 55.7952C43.1382 55.5078 43.1071 55.1916 43.1678 54.8866C43.2284 54.5816 43.3782 54.3014 43.5981 54.0815C43.818 53.8615 44.0982 53.7118 44.4033 53.6511C44.7083 53.5904 45.0245 53.6216 45.3118 53.7406C45.5992 53.8596 45.8448 54.0612 46.0175 54.3198C46.1903 54.5783 46.2826 54.8824 46.2826 55.1934C46.2795 55.6095 46.1129 56.0077 45.8186 56.302C45.5244 56.5962 45.1262 56.7629 44.7101 56.7659ZM44.7101 48.3792C44.399 48.3792 44.095 48.287 43.8364 48.1142C43.5778 47.9414 43.3763 47.6958 43.2573 47.4085C43.1382 47.1212 43.1071 46.805 43.1678 46.4999C43.2284 46.1949 43.3782 45.9147 43.5981 45.6948C43.818 45.4749 44.0982 45.3251 44.4033 45.2644C44.7083 45.2038 45.0245 45.2349 45.3118 45.3539C45.5992 45.4729 45.8448 45.6745 46.0175 45.9331C46.1903 46.1917 46.2826 46.4957 46.2826 46.8067C46.2795 47.2228 46.1129 47.6211 45.8186 47.9153C45.5244 48.2096 45.1262 48.3762 44.7101 48.3792ZM55.1934 56.7659C54.8824 56.7659 54.5784 56.6737 54.3198 56.5009C54.0612 56.3281 53.8596 56.0825 53.7406 55.7952C53.6216 55.5078 53.5904 55.1916 53.6511 54.8866C53.7118 54.5816 53.8615 54.3014 54.0815 54.0815C54.3014 53.8615 54.5816 53.7118 54.8866 53.6511C55.1916 53.5904 55.5078 53.6216 55.7952 53.7406C56.0825 53.8596 56.3281 54.0612 56.5009 54.3198C56.6737 54.5783 56.7659 54.8824 56.7659 55.1934C56.7629 55.6095 56.5962 56.0077 56.302 56.302C56.0077 56.5962 55.6095 56.7629 55.1934 56.7659ZM51.1259 29.5092H31.0817C30.6656 29.5122 30.2674 29.6789 29.9731 29.9731C29.6789 30.2674 29.5122 30.6656 29.5092 31.0817V37.3717C29.5122 37.7878 29.6789 38.1861 29.9731 38.4803C30.2674 38.7746 30.6656 38.9412 31.0817 38.9442H51.1259C50.2592 35.8589 50.2592 32.5945 51.1259 29.5092ZM59.3868 64.1042H30.0335C29.6164 64.1042 29.2164 64.2699 28.9215 64.5648C28.6266 64.8597 28.461 65.2597 28.461 65.6767C28.461 66.0938 28.6266 66.4937 28.9215 66.7886C29.2164 67.0835 29.6164 67.2492 30.0335 67.2492H32.6543V77.2084C32.6558 78.4591 33.1534 79.6581 34.0377 80.5424C34.9221 81.4268 36.1211 81.9243 37.3718 81.9259H52.0485C53.2991 81.9243 54.4981 81.4268 55.3825 80.5424C56.2669 79.6581 56.7644 78.4591 56.766 77.2084V67.2492H59.3868C59.8038 67.2492 60.2038 67.0835 60.4987 66.7886C60.7936 66.4937 60.9593 66.0938 60.9593 65.6767C60.9593 65.2597 60.7936 64.8597 60.4987 64.5648C60.2038 64.2699 59.8038 64.1042 59.3868 64.1042ZM57.7661 24.2194C60.4202 21.5653 64.02 20.0742 67.7735 20.0742C71.5252 20.0798 75.1218 21.5726 77.7747 24.2255C80.4276 26.8784 81.9204 30.4749 81.926 34.2267C81.8808 37.9662 80.3752 41.5397 77.7309 44.1841C75.0865 46.8285 71.5129 48.3341 67.7735 48.3792C64.02 48.3792 60.4202 46.8882 57.7661 44.234C55.112 41.5799 53.621 37.9802 53.621 34.2267C53.621 30.4732 55.112 26.8735 57.7661 24.2194ZM68.8854 33.1148C68.5905 32.8199 68.1905 32.6542 67.7735 32.6542H65.2155C65.3561 31.7653 65.8135 30.9572 66.5033 30.3792C67.1931 29.8011 68.0687 29.4921 68.9686 29.5092C69.7566 29.5017 70.5275 29.7399 71.1738 30.1909C71.8201 30.6418 72.3099 31.283 72.5748 32.0252C72.6394 32.2225 72.7425 32.4051 72.8781 32.5623C73.0137 32.7195 73.1791 32.8483 73.3647 32.9413C73.5504 33.0342 73.7526 33.0895 73.9597 33.1038C74.1668 33.1181 74.3748 33.0913 74.5714 33.0248C74.7681 32.9583 74.9497 32.8535 75.1056 32.7165C75.2616 32.5794 75.3888 32.4128 75.48 32.2263C75.5712 32.0397 75.6245 31.837 75.6369 31.6298C75.6493 31.4225 75.6204 31.2149 75.5521 31.0188C75.0283 29.5231 74.0092 28.2512 72.6637 27.4139C71.3181 26.5767 69.7269 26.2243 68.1537 26.4151C66.5804 26.606 65.1196 27.3286 64.0133 28.4633C62.9069 29.598 62.2215 31.0766 62.0705 32.6542H61.4835C61.0664 32.6542 60.6664 32.8199 60.3715 33.1148C60.0766 33.4097 59.911 33.8097 59.911 34.2267C59.911 34.6438 60.0766 35.0437 60.3715 35.3386C60.6664 35.6335 61.0664 35.7992 61.4835 35.7992H62.0705C62.2169 37.5237 63.0085 39.1294 64.2874 40.2955C65.5662 41.4616 67.2379 42.1022 68.9686 42.0892C70.323 42.0953 71.6497 41.7057 72.7857 40.9682C73.9218 40.2307 74.8177 39.1774 75.3634 37.9378C75.5221 37.5556 75.5242 37.1262 75.3693 36.7424C75.2144 36.3586 74.9149 36.051 74.5353 35.886C74.1557 35.7209 73.7265 35.7117 73.3402 35.8602C72.9538 36.0087 72.6413 36.303 72.47 36.6798C72.1733 37.3594 71.683 37.9366 71.0603 38.3393C70.4376 38.742 69.7101 38.9524 68.9686 38.9442C68.0687 38.9613 67.1931 38.6523 66.5033 38.0742C65.8135 37.4962 65.3561 36.6881 65.2155 35.7992H67.7735C68.1905 35.7992 68.5905 35.6335 68.8854 35.3386C69.1803 35.0437 69.346 34.6438 69.346 34.2267C69.346 33.8097 69.1803 33.4097 68.8854 33.1148Z" fill="url(#paint0_linear_22_91)"/>
<defs>
<linearGradient id="paint0_linear_22_91" x1="51.0001" y1="20.0742" x2="51.0001" y2="81.9259" gradientUnits="userSpaceOnUse">
<stop stop-color="#B444FF"/>
<stop offset="1" stop-color="#F582FF"/>
</linearGradient>
</defs>
</svg>
