<svg width="78" height="77" viewBox="0 0 78 77" fill="none" xmlns="http://www.w3.org/2000/svg">
<path fill-rule="evenodd" clip-rule="evenodd" d="M70.1816 29.7525C69.6676 21.9093 66.3384 14.5176 60.8099 8.94414C55.115 3.2181 47.38 0 39.3132 0C31.2463 0 23.5114 3.2181 17.8165 8.94414C12.2872 14.5176 8.95873 21.9093 8.44401 29.7525C8.17331 34.0259 8.80181 38.3089 10.2887 42.3228C11.7473 46.329 14.1334 50.118 17.381 53.5862L39.3132 77L61.2445 53.5854C64.4922 50.1172 66.879 46.3282 68.3369 42.3221C69.8245 38.3081 70.453 34.0252 70.1816 29.7525ZM39.3045 53.0113C39.2222 53.0113 39.1413 53.0113 39.059 53.0097C26.3314 52.8729 16.0903 42.1192 16.23 29.0368C16.2684 22.7775 18.7573 16.7841 23.1599 12.3455C27.4832 7.94379 33.4064 5.49483 39.5682 5.56089C45.7291 5.62695 51.599 8.20332 55.8266 12.6962C60.1335 17.2285 62.4929 23.2746 62.3972 29.533C62.2567 42.5305 51.9207 53.0113 39.3045 53.0113ZM39.3132 26.5115C42.8629 26.5115 45.7409 23.6277 45.7409 20.0691C45.7409 16.5112 42.8629 13.6266 39.3132 13.6266C35.7635 13.6266 32.8854 16.5112 32.8854 20.0691C32.8854 23.6277 35.7635 26.5115 39.3132 26.5115ZM27.6692 46.8922C27.8198 40.5527 32.9859 35.4888 39.3132 35.481C45.6342 35.4888 50.7979 40.5433 50.9564 46.8772C47.5495 49.2947 43.478 50.5939 39.3038 50.5947C39.2837 50.5947 39.2636 50.5946 39.2434 50.5946C39.2274 50.5945 39.2113 50.5944 39.1952 50.5943H39.1949C39.1582 50.5941 39.1214 50.5939 39.0848 50.5939C34.993 50.5499 31.0117 49.2593 27.6692 46.8922ZM24.868 14.0489C28.7331 10.112 34.0302 7.92016 39.5407 7.97679C45.0528 8.03341 50.3036 10.34 54.0808 14.3634C62.1524 22.9403 61.9225 36.4049 53.5638 44.7002C52.3711 37.7426 46.3498 32.6583 39.3061 32.6614C32.2624 32.6654 26.2458 37.7552 25.0603 44.7144C16.5752 36.2932 16.4889 22.577 24.868 14.0489ZM30.0733 20.069C30.0733 25.184 34.2099 29.3301 39.3132 29.3301C44.4141 29.3246 48.5476 25.1816 48.5531 20.069C48.5531 14.9548 44.4165 10.808 39.3132 10.808C34.2099 10.808 30.0733 14.9548 30.0733 20.069Z" fill="url(#paint0_linear_22_210)"/>
<defs>
<linearGradient id="paint0_linear_22_210" x1="39.3129" y1="0" x2="39.3123" y2="77" gradientUnits="userSpaceOnUse">
<stop stop-color="#B545FF"/>
<stop offset="1" stop-color="#F381FF"/>
</linearGradient>
</defs>
</svg>
