<svg width="67" height="67" viewBox="0 0 67 67" fill="none" xmlns="http://www.w3.org/2000/svg">
<g clip-path="url(#clip0_22_193)">
<path fill-rule="evenodd" clip-rule="evenodd" d="M29.9892 27.561C37.3237 27.561 43.2697 21.615 43.2697 14.2805C43.2697 6.94603 37.3237 1 29.9892 1C22.6547 1 16.7087 6.94603 16.7087 14.2805C16.7087 21.615 22.6547 27.561 29.9892 27.561ZM53.8642 29.5946C47.2607 29.5946 41.8882 34.8103 41.8882 41.2215C41.8882 47.6327 47.2601 52.8484 53.8642 52.8484C60.4683 52.8484 65.8402 47.6327 65.8402 41.2215C65.8402 34.8103 60.4678 29.5946 53.8642 29.5946ZM61.6499 40.0668L57.8448 42.758L59.295 47.0999C59.4378 47.5283 59.2892 47.9999 58.9266 48.2692C58.564 48.5385 58.0698 48.5443 57.7008 48.2838L53.8648 45.5716L50.0288 48.2838C49.6599 48.5443 49.1656 48.5385 48.803 48.2692C48.4405 47.9999 48.2918 47.5283 48.4346 47.0999L49.8849 42.758L46.0798 40.0668C45.7079 39.8039 45.5493 39.3312 45.6875 38.8975C45.825 38.4639 46.2278 38.1695 46.6825 38.1695H51.4173L52.8745 33.8048C53.0167 33.3782 53.416 33.0908 53.8654 33.0908C54.3148 33.0908 54.7141 33.3782 54.8563 33.8048L56.3135 38.1695H61.0483C61.503 38.1695 61.9057 38.4639 62.0439 38.8975C62.1814 39.3312 62.0229 39.8039 61.651 40.0668H61.6499ZM39.7992 41.2216C39.7992 40.3233 39.8896 39.4274 40.0685 38.5473C36.9314 37.0085 33.483 36.2111 29.9892 36.2157C23.8287 36.2157 18.0983 38.6056 13.8537 42.9446C9.76535 47.1239 7.4169 52.7773 7.17908 58.9571H44.0082V50.996C41.327 48.4511 39.8056 44.9182 39.7992 41.2216ZM54.5702 39.5458L53.8649 37.4346L53.1596 39.5458C53.0168 39.9719 52.6181 40.2593 52.1686 40.2593H49.9682L51.7239 41.5008C52.0999 41.7666 52.2572 42.2475 52.1115 42.6847L51.4255 44.7382L53.2604 43.4401C53.6218 43.1848 54.105 43.1848 54.4664 43.4401L56.3019 44.7382L55.6159 42.6841C55.4696 42.2475 55.6275 41.7666 56.0035 41.5002L57.7592 40.2593H55.5599C55.1105 40.2587 54.7124 39.9713 54.5702 39.5458ZM46.0973 68.0001V52.6502H46.0984C50.8275 55.6993 56.9029 55.6993 61.6325 52.6502V68.0001L54.5743 61.463C54.1738 61.0922 53.5548 61.0922 53.1544 61.463L46.0973 68.0001Z" fill="url(#paint0_linear_22_193)"/>
</g>
<defs>
<linearGradient id="paint0_linear_22_193" x1="36.5097" y1="1" x2="36.5091" y2="68.0001" gradientUnits="userSpaceOnUse">
<stop stop-color="#B848FF"/>
<stop offset="1" stop-color="#EE7CFF"/>
</linearGradient>
<clipPath id="clip0_22_193">
<rect width="67" height="67" fill="white"/>
</clipPath>
</defs>
</svg>
