<svg width="82" height="81" viewBox="0 0 82 81" fill="none" xmlns="http://www.w3.org/2000/svg">
<g clip-path="url(#clip0_22_120)">
<path fill-rule="evenodd" clip-rule="evenodd" d="M48.6236 18.3457C49.4215 9.85006 56.6384 3.35276 65.2756 3.35352C72.2682 3.34898 78.524 7.64446 80.9567 14.1206C83.3886 20.5967 81.4828 27.8837 76.1794 32.3849C75.0408 27.3368 70.5062 23.7463 65.2703 23.7493C60.0343 23.7516 55.5021 27.3459 54.3688 32.3955C54.0196 32.0967 53.6774 31.7858 53.3496 31.4568C50.2653 28.3723 48.5409 24.2092 48.5509 19.8744C48.5509 19.3555 48.5754 18.8434 48.6236 18.3457ZM58.0228 14.7446C58.0228 18.7012 61.2702 21.909 65.2756 21.909C69.2796 21.9045 72.5239 18.6997 72.5285 14.7446C72.5285 10.788 69.2811 7.58017 65.2756 7.58017C61.2702 7.58017 58.0228 10.788 58.0228 14.7446ZM51.3925 33.3565C47.802 29.7668 45.7936 24.9207 45.8058 19.8741C45.8058 19.8158 45.8076 19.7583 45.8095 19.7009V19.7008V19.7007V19.7007V19.7006C45.8108 19.6597 45.8121 19.6188 45.8127 19.5776H33.3239V36.8994H56.205C54.4255 35.9706 52.8022 34.7755 51.3925 33.3565ZM24.0121 77.5942H39.8914V56.7326L24.0121 50.1559V77.5942ZM1.40585 77.5942C0.630183 77.5935 0.00153143 76.9732 0 76.2078V39.6112H63.9035V76.2078C63.902 76.9732 63.2733 77.5935 62.4976 77.5942H42.6358V55.831C42.6358 55.2849 42.3042 54.7925 41.7942 54.5807L23.1705 46.8679C22.7471 46.6924 22.2624 46.7378 21.8803 46.9889C21.4974 47.2401 21.2677 47.6636 21.2677 48.1175V77.5942H1.40585ZM30.5796 19.5776H13.0784C12.5975 19.5769 12.1496 19.8197 11.8915 20.2213L1.13018 36.8994H30.5796V19.5776ZM69.7841 14.7444C69.7841 17.2041 67.7657 19.1979 65.2756 19.1979C62.7855 19.1979 60.7671 17.2041 60.7671 14.7444C60.7671 12.2847 62.7855 10.2908 65.2756 10.2908C67.7657 10.2908 69.7841 12.2847 69.7841 14.7444ZM56.8727 34.1599C57.2088 29.8198 60.869 26.4652 65.2756 26.4591C69.6785 26.4652 73.3363 29.8137 73.6771 34.1501C71.128 35.622 68.2282 36.3973 65.2756 36.3951C65.2004 36.3951 65.1252 36.3938 65.0494 36.3925C65.0233 36.3921 64.9972 36.3917 64.9709 36.3913C62.1224 36.3451 59.3337 35.5774 56.8727 34.1599Z" fill="url(#paint0_linear_22_120)"/>
</g>
<defs>
<linearGradient id="paint0_linear_22_120" x1="41.0005" y1="3.35352" x2="41.0001" y2="77.5942" gradientUnits="userSpaceOnUse">
<stop stop-color="#C453FF"/>
<stop offset="1" stop-color="#EF97FF"/>
</linearGradient>
<clipPath id="clip0_22_120">
<rect width="82" height="81" fill="white"/>
</clipPath>
</defs>
</svg>
