<svg width="84" height="84" viewBox="0 0 84 84" fill="none" xmlns="http://www.w3.org/2000/svg">
<path d="M67.786 2.85946C66.9683 2.03563 65.9953 1.38229 64.9232 0.937293C63.8512 0.492298 62.7015 0.264503 61.5408 0.267112H19.1206C16.777 0.267986 14.5296 1.19936 12.8724 2.85654C11.2153 4.51371 10.2839 6.76106 10.283 9.10466V68.0216C10.2807 68.3428 10.3676 68.6582 10.534 68.9329C10.7005 69.2075 10.9399 69.4305 11.2257 69.577C11.5102 69.7207 11.8272 69.7876 12.1455 69.7711C12.4638 69.7545 12.7722 69.6551 13.0403 69.4828L19.1206 65.4293L25.2244 69.4828C25.5173 69.6787 25.8618 69.7833 26.2142 69.7833C26.5666 69.7833 26.911 69.6787 27.204 69.4828L33.2842 65.4293L39.3644 69.4828C39.6574 69.6787 40.0018 69.7833 40.3542 69.7833C40.7066 69.7833 41.0511 69.6787 41.344 69.4828L47.4243 65.4293L53.4809 69.4828C53.7468 69.661 54.0561 69.7639 54.3758 69.7805C54.6954 69.797 55.0136 69.7266 55.2965 69.5767C55.5794 69.4268 55.8163 69.203 55.9821 68.9292C56.148 68.6554 56.2365 68.3418 56.2383 68.0216V22.6556H68.6108C69.0785 22.6522 69.5261 22.4649 69.8569 22.1341C70.1876 21.8034 70.3749 21.3558 70.3783 20.8881V9.10466C70.3809 7.94394 70.1531 6.79424 69.7081 5.72221C69.2632 4.65018 68.6098 3.67713 67.786 2.85946ZM33.2606 25.0122C31.6982 25.0175 30.1868 24.4563 29.0064 23.4326C27.826 22.4089 27.0567 20.992 26.841 19.4445C26.6253 17.897 26.9777 16.3238 27.8331 15.0162C28.6885 13.7087 29.9888 12.7555 31.4931 12.3333V11.4613C31.4931 10.9926 31.6793 10.543 32.0108 10.2115C32.3423 9.88005 32.7919 9.69383 33.2606 9.69383C33.7294 9.69383 34.179 9.88005 34.5104 10.2115C34.8419 10.543 35.0281 10.9926 35.0281 11.4613V12.0505H37.974C38.4428 12.0505 38.8923 12.2367 39.2238 12.5682C39.5553 12.8997 39.7415 13.3492 39.7415 13.818C39.7415 14.2868 39.5553 14.7364 39.2238 15.0678C38.8923 15.3993 38.4428 15.5855 37.974 15.5855H33.2606C32.4793 15.5855 31.7301 15.8959 31.1776 16.4483C30.6251 17.0008 30.3148 17.7501 30.3148 18.5314C30.3148 19.3127 30.6251 20.062 31.1776 20.6144C31.7301 21.1669 32.4793 21.4772 33.2606 21.4772C34.8231 21.4719 36.3345 22.0331 37.5149 23.0569C38.6952 24.0806 39.4645 25.4975 39.6803 27.045C39.896 28.5925 39.5435 30.1657 38.6881 31.4732C37.8328 32.7807 36.5325 33.7339 35.0281 34.1562V35.0281C35.0281 35.4969 34.8419 35.9465 34.5104 36.2779C34.179 36.6094 33.7294 36.7956 33.2606 36.7956C32.7919 36.7956 32.3423 36.6094 32.0108 36.2779C31.6793 35.9465 31.4931 35.4969 31.4931 35.0281V34.439H28.5473C28.0785 34.439 27.6289 34.2527 27.2975 33.9213C26.966 33.5898 26.7798 33.1402 26.7798 32.6714C26.7798 32.2027 26.966 31.7531 27.2975 31.4216C27.6289 31.0902 28.0785 30.9039 28.5473 30.9039H33.2606C34.0419 30.9039 34.7912 30.5936 35.3437 30.0411C35.8961 29.4887 36.2065 28.7394 36.2065 27.9581C36.2065 27.1768 35.8961 26.4275 35.3437 25.8751C34.7912 25.3226 34.0419 25.0122 33.2606 25.0122ZM42.6873 55.6491H23.8339C23.3651 55.6491 22.9156 55.4628 22.5841 55.1314C22.2526 54.7999 22.0664 54.3503 22.0664 53.8816C22.0664 53.4128 22.2526 52.9632 22.5841 52.6317C22.9156 52.3003 23.3651 52.114 23.8339 52.114H42.6873C43.1561 52.114 43.6057 52.3003 43.9372 52.6317C44.2686 52.9632 44.4549 53.4128 44.4549 53.8816C44.4549 54.3503 44.2686 54.7999 43.9372 55.1314C43.6057 55.4628 43.1561 55.6491 42.6873 55.6491ZM47.4007 46.2224H19.1206C18.6518 46.2224 18.2022 46.0361 17.8707 45.7047C17.5393 45.3732 17.353 44.9236 17.353 44.4548C17.353 43.9861 17.5393 43.5365 17.8707 43.205C18.2022 42.8736 18.6518 42.6873 19.1206 42.6873H47.4007C47.8695 42.6873 48.3191 42.8736 48.6505 43.205C48.982 43.5365 49.1682 43.9861 49.1682 44.4548C49.1682 44.9236 48.982 45.3732 48.6505 45.7047C48.3191 46.0361 47.8695 46.2224 47.4007 46.2224ZM66.8433 19.1205H56.2383V9.10466C56.2404 7.69899 56.7997 6.3515 57.7937 5.35754C58.7876 4.36359 60.1351 3.80425 61.5408 3.80213C62.9464 3.80425 64.2939 4.36359 65.2879 5.35754C66.2819 6.3515 66.8412 7.69899 66.8433 9.10466V19.1205Z" fill="url(#paint0_linear_22_160)"/>
<defs>
<linearGradient id="paint0_linear_22_160" x1="40.3307" y1="0.26709" x2="40.3307" y2="69.7833" gradientUnits="userSpaceOnUse">
<stop stop-color="#BC4BFF"/>
<stop offset="1" stop-color="#F07DFF"/>
</linearGradient>
</defs>
</svg>
