<svg width="63" height="63" viewBox="0 0 63 63" fill="none" xmlns="http://www.w3.org/2000/svg">
<g clip-path="url(#clip0_22_217)">
<path fill-rule="evenodd" clip-rule="evenodd" d="M47.912 7.8811C43.0812 4.5268 37.3361 2.73788 31.455 2.75593C15.4825 2.75593 2.48801 15.7504 2.48801 31.7229C2.48037 35.5534 3.23842 39.3471 4.71634 42.8812C4.89267 43.2922 4.83505 43.7663 4.56501 44.1231C4.29497 44.4792 3.85417 44.6632 3.41058 44.6049C2.96769 44.5472 2.58936 44.255 2.42067 43.8413C0.815026 40.0031 -0.00758336 35.8831 5.2678e-05 31.7229C5.2678e-05 14.3787 14.1101 0.267976 31.455 0.267976C37.8678 0.247845 44.1308 2.20683 49.3899 5.87768L52.0556 2.25959C52.3513 1.85835 52.8574 1.67231 53.3426 1.78616C53.8278 1.9007 54.1978 2.29361 54.2825 2.78509L55.9638 12.4856C56.0215 12.8202 55.9402 13.1638 55.7389 13.4367C55.5376 13.7095 55.2336 13.8886 54.8976 13.9323L45.1339 15.1999C45.0804 15.2068 45.027 15.2103 44.9735 15.2103C44.5042 15.2103 44.0752 14.9458 43.8635 14.5272C43.6525 14.1086 43.6941 13.606 43.9725 13.2284L47.912 7.8811ZM41.5338 18.0391C41.5338 17.3526 40.9771 16.7952 40.2898 16.7952H22.7103C22.023 16.7952 21.4663 17.3526 21.4663 18.0391C21.4663 18.7264 22.023 19.2831 22.7103 19.2831H27.7404C30.7385 19.2873 33.3195 21.4004 33.9151 24.3382H22.7103C22.023 24.3382 21.4663 24.8949 21.4663 25.5822C21.4663 26.2694 22.023 26.8261 22.7103 26.8261H33.9151C33.3195 29.7639 30.7385 31.877 27.7404 31.8805H22.7103C22.2008 31.8812 21.7433 32.1915 21.5545 32.6649C21.3663 33.1384 21.4857 33.6784 21.8557 34.0283L34.4288 45.9093C34.9279 46.3813 35.7158 46.3591 36.1872 45.8593C36.6592 45.3602 36.637 44.573 36.1379 44.1009L25.8376 34.3685H27.7404C32.1102 34.3622 35.8137 31.1502 36.4378 26.8254H40.2898C40.9771 26.8254 41.5338 26.2687 41.5338 25.5815C41.5338 24.8942 40.9771 24.3375 40.2898 24.3375H36.4378C36.1615 22.4132 35.2542 20.6354 33.8582 19.2831H40.2898C40.9771 19.2831 41.5338 18.7264 41.5338 18.0391ZM8.71834 60.26C8.80372 60.7515 9.17372 61.1444 9.65826 61.2583C10.1435 61.3728 10.6503 61.1868 10.946 60.7855L13.6116 57.1674C18.8701 60.8383 25.1323 62.7966 31.5452 62.7771C48.8894 62.7771 63.0001 48.6664 63.0001 31.3222C63.0077 27.162 62.1851 23.042 60.5795 19.2039C60.4108 18.7901 60.0325 18.4979 59.5896 18.4396C59.146 18.3813 58.7052 18.5659 58.4352 18.922C58.1651 19.2788 58.1075 19.753 58.2838 20.1639C59.7617 23.698 60.5198 27.491 60.5122 31.3222C60.5122 47.2947 47.5177 60.2892 31.5452 60.2892C25.6641 60.3072 19.919 58.5183 15.0875 55.1633L19.0277 49.8167C19.3227 49.4155 19.3505 48.8761 19.0978 48.4471C18.8444 48.0181 18.3599 47.7807 17.8656 47.8452L8.1019 49.1128C7.76592 49.1565 7.46186 49.3356 7.26055 49.6085C7.05924 49.8813 6.97802 50.2249 7.03563 50.5588L8.71834 60.26Z" fill="url(#paint0_linear_22_217)"/>
</g>
<defs>
<linearGradient id="paint0_linear_22_217" x1="31.5001" y1="0.267822" x2="31.5001" y2="62.7773" gradientUnits="userSpaceOnUse">
<stop stop-color="#B444FF"/>
<stop offset="1" stop-color="#F582FF"/>
</linearGradient>
<clipPath id="clip0_22_217">
<rect width="63" height="63" fill="white"/>
</clipPath>
</defs>
</svg>
